<?xml version="1.0" encoding="UTF-8"?>
<svg id="Layer_2" data-name="Layer 2" xmlns="http://www.w3.org/2000/svg" viewBox="0 0 113.18 40.73">
  <defs>
    <style>
      .cls-1 {
        stroke: #354f42;
      }

      .cls-1, .cls-2, .cls-3, .cls-4, .cls-5 {
        fill: none;
        stroke-miterlimit: 10;
        stroke-width: .75px;
      }

      .cls-6 {
        fill: #f89521;
      }

      .cls-6, .cls-7, .cls-8 {
        stroke-width: 0px;
      }

      .cls-7 {
        fill: #fbb042;
      }

      .cls-8 {
        fill: #231f20;
      }

      .cls-2 {
        stroke: #598158;
      }

      .cls-3 {
        stroke: #3c5b41;
      }

      .cls-4 {
        stroke: #a4b28b;
      }

      .cls-5 {
        stroke: #dad8cd;
      }
    </style>
  </defs>
  <g id="Layer_1-2" data-name="Layer 1">
    <g>
      <path class="cls-8" d="M42.56,5.2c.37-.65.88-1.16,1.52-1.52.64-.36,1.37-.55,2.17-.55.94,0,1.76.24,2.46.72s1.2,1.14,1.48,1.99h-1.93c-.19-.4-.46-.7-.81-.9-.35-.2-.75-.3-1.21-.3-.49,0-.92.11-1.3.34s-.68.55-.89.97-.32.9-.32,1.46.11,1.04.32,1.46c.21.42.51.74.89.97s.81.34,1.3.34c.46,0,.86-.1,1.21-.31.35-.2.62-.51.81-.91h1.93c-.28.86-.77,1.52-1.47,2-.7.48-1.52.71-2.47.71-.8,0-1.52-.18-2.17-.55-.64-.36-1.15-.87-1.52-1.52s-.56-1.38-.56-2.21.19-1.56.56-2.21Z"/>
      <path class="cls-8" d="M53.3,2.73v8.88h-1.68V2.73h1.68Z"/>
      <path class="cls-8" d="M55.07,3.89c-.2-.19-.29-.42-.29-.7s.1-.51.29-.7.44-.28.74-.28.54.09.74.28c.2.19.29.42.29.7s-.1.51-.29.7c-.2.19-.44.28-.74.28s-.54-.09-.74-.28ZM56.64,4.96v6.65h-1.68v-6.65h1.68Z"/>
      <path class="cls-8" d="M68.52,5.62c.5.5.75,1.2.75,2.09v3.9h-1.68v-3.67c0-.52-.13-.92-.39-1.19-.27-.28-.62-.41-1.08-.41s-.82.14-1.09.41c-.27.28-.4.67-.4,1.19v3.67h-1.68v-3.67c0-.52-.13-.92-.4-1.19-.26-.28-.62-.41-1.08-.41s-.83.14-1.1.41c-.27.28-.4.67-.4,1.19v3.67h-1.68v-6.65h1.68v.8c.22-.28.49-.5.83-.66.34-.16.71-.24,1.12-.24.52,0,.98.11,1.39.33.41.22.72.53.95.94.22-.38.53-.69.94-.92s.86-.35,1.34-.35c.82,0,1.47.25,1.97.75Z"/>
      <path class="cls-8" d="M70.84,6.47c.27-.52.63-.92,1.09-1.2.46-.28.97-.42,1.54-.42.5,0,.93.1,1.3.3.37.2.67.45.89.76v-.95h1.69v6.65h-1.69v-.97c-.22.31-.51.57-.89.77-.38.2-.82.31-1.31.31-.56,0-1.07-.14-1.53-.43-.46-.29-.82-.69-1.09-1.22-.27-.52-.4-1.13-.4-1.81s.13-1.27.4-1.79ZM75.43,7.24c-.16-.29-.38-.52-.65-.67-.27-.16-.56-.23-.88-.23s-.6.08-.86.23c-.26.15-.48.37-.64.67-.16.29-.25.64-.25,1.04s.08.75.25,1.05c.16.3.38.53.65.69.27.16.55.24.86.24s.6-.08.88-.23c.27-.16.49-.38.65-.67s.24-.64.24-1.05-.08-.76-.24-1.05Z"/>
      <path class="cls-8" d="M80.96,6.34v3.22c0,.22.05.39.16.49.11.1.29.15.55.15h.78v1.42h-1.06c-1.42,0-2.12-.69-2.12-2.06v-3.2h-.79v-1.38h.79v-1.64h1.69v1.64h1.49v1.38h-1.49Z"/>
      <path class="cls-8" d="M89.8,8.79h-4.86c.04.48.21.86.5,1.13s.66.41,1.09.41c.62,0,1.07-.27,1.33-.8h1.81c-.19.64-.56,1.17-1.1,1.58-.54.41-1.21.62-2,.62-.64,0-1.21-.14-1.72-.43-.51-.28-.9-.69-1.19-1.21-.28-.52-.43-1.12-.43-1.8s.14-1.29.42-1.81c.28-.52.67-.92,1.18-1.2.5-.28,1.08-.42,1.74-.42s1.2.14,1.7.41.89.66,1.16,1.16c.28.5.41,1.07.41,1.72,0,.24-.02.46-.05.65ZM88.1,7.66c0-.43-.16-.78-.47-1.04-.3-.26-.68-.39-1.12-.39-.42,0-.77.13-1.05.38s-.46.6-.52,1.05h3.16Z"/>
      <path class="cls-8" d="M47.54,21.01h-3.34l-.55,1.6h-1.76l3.01-8.39h1.96l3.01,8.39h-1.78l-.55-1.6ZM47.09,19.67l-1.21-3.5-1.21,3.5h2.42Z"/>
      <path class="cls-8" d="M50.99,17.48c.28-.52.67-.92,1.16-1.2.5-.28,1.06-.43,1.7-.43.82,0,1.51.21,2.05.62.54.41.9.99,1.09,1.73h-1.81c-.1-.29-.26-.51-.49-.68s-.51-.25-.85-.25c-.48,0-.86.17-1.14.52-.28.35-.42.84-.42,1.48s.14,1.12.42,1.47c.28.35.66.52,1.14.52.68,0,1.12-.3,1.33-.91h1.81c-.18.72-.55,1.29-1.09,1.72-.54.42-1.22.64-2.04.64-.64,0-1.21-.14-1.7-.43-.5-.28-.88-.68-1.16-1.2-.28-.52-.42-1.12-.42-1.81s.14-1.29.42-1.81Z"/>
      <path class="cls-8" d="M60.18,17.34v3.22c0,.22.05.39.16.49.11.1.29.15.55.15h.78v1.42h-1.06c-1.42,0-2.12-.69-2.12-2.06v-3.2h-.79v-1.38h.79v-1.64h1.69v1.64h1.49v1.38h-1.49Z"/>
      <path class="cls-8" d="M62.99,14.89c-.2-.19-.29-.42-.29-.7s.1-.51.29-.7c.2-.19.44-.28.74-.28s.54.09.74.28.29.42.29.7-.1.51-.29.7c-.2.19-.44.28-.74.28s-.54-.09-.74-.28ZM64.56,15.96v6.65h-1.68v-6.65h1.68Z"/>
      <path class="cls-8" d="M67.44,22.29c-.51-.28-.91-.69-1.21-1.21-.29-.52-.44-1.12-.44-1.8s.15-1.28.45-1.8c.3-.52.71-.92,1.23-1.21.52-.28,1.1-.43,1.74-.43s1.22.14,1.74.43c.52.28.93.69,1.23,1.21s.45,1.12.45,1.8-.15,1.28-.46,1.8c-.31.52-.72.92-1.25,1.21-.52.28-1.11.43-1.76.43s-1.22-.14-1.73-.43ZM70.02,21.03c.27-.15.48-.37.64-.67.16-.3.24-.66.24-1.08,0-.63-.17-1.12-.5-1.46-.33-.34-.74-.51-1.22-.51s-.88.17-1.21.51c-.32.34-.49.83-.49,1.46s.16,1.12.47,1.46c.32.34.71.51,1.19.51.3,0,.59-.07.86-.22Z"/>
      <path class="cls-8" d="M79.47,16.62c.49.5.73,1.2.73,2.09v3.9h-1.68v-3.67c0-.53-.13-.93-.4-1.22-.26-.28-.62-.43-1.08-.43s-.83.14-1.1.43c-.27.28-.4.69-.4,1.22v3.67h-1.68v-6.65h1.68v.83c.22-.29.51-.51.86-.68.35-.16.73-.25,1.15-.25.79,0,1.43.25,1.92.75Z"/>
      <path class="cls-8" d="M47.54,32.01h-3.34l-.55,1.6h-1.76l3.01-8.39h1.96l3.01,8.39h-1.78l-.55-1.6ZM47.09,30.67l-1.21-3.5-1.21,3.5h2.42Z"/>
      <path class="cls-8" d="M52.08,33.43c-.43-.2-.77-.46-1.03-.8s-.39-.71-.41-1.12h1.69c.03.26.16.47.38.64.22.17.49.25.82.25s.57-.06.75-.19c.18-.13.27-.29.27-.49,0-.22-.11-.38-.33-.49-.22-.11-.57-.23-1.05-.35-.5-.12-.9-.24-1.22-.37-.32-.13-.59-.32-.82-.59-.23-.26-.34-.62-.34-1.07,0-.37.11-.7.32-1.01.21-.3.52-.54.91-.72s.86-.26,1.4-.26c.79,0,1.42.2,1.9.59.47.4.73.93.78,1.6h-1.61c-.02-.26-.13-.47-.33-.63-.2-.16-.46-.23-.79-.23-.3,0-.54.06-.7.17s-.25.27-.25.47c0,.22.11.39.34.51.22.12.57.23,1.04.35.48.12.88.24,1.19.37s.58.33.81.59c.23.27.35.62.35,1.06,0,.38-.11.73-.32,1.03-.21.3-.52.54-.91.71s-.86.26-1.39.26-1.03-.1-1.46-.29Z"/>
      <path class="cls-8" d="M58.62,33.43c-.43-.2-.77-.46-1.03-.8s-.39-.71-.41-1.12h1.69c.03.26.16.47.38.64.22.17.49.25.82.25s.57-.06.75-.19c.18-.13.27-.29.27-.49,0-.22-.11-.38-.33-.49-.22-.11-.57-.23-1.05-.35-.5-.12-.9-.24-1.22-.37-.32-.13-.59-.32-.82-.59-.23-.26-.34-.62-.34-1.07,0-.37.11-.7.32-1.01.21-.3.52-.54.91-.72s.86-.26,1.4-.26c.79,0,1.42.2,1.9.59.47.4.73.93.78,1.6h-1.61c-.02-.26-.13-.47-.33-.63-.2-.16-.46-.23-.79-.23-.3,0-.54.06-.7.17s-.25.27-.25.47c0,.22.11.39.34.51.22.12.57.23,1.04.35.48.12.88.24,1.19.37.31.13.58.33.81.59.23.27.35.62.36,1.06,0,.38-.11.73-.32,1.03-.21.3-.52.54-.91.71-.4.17-.86.26-1.39.26s-1.03-.1-1.46-.29Z"/>
      <path class="cls-8" d="M65.3,33.29c-.51-.28-.91-.69-1.21-1.21-.29-.52-.44-1.12-.44-1.8s.15-1.28.45-1.8c.3-.52.71-.92,1.23-1.21.52-.28,1.1-.43,1.74-.43s1.22.14,1.74.43c.52.28.93.69,1.23,1.21.3.52.45,1.12.45,1.8s-.15,1.28-.46,1.8c-.31.52-.72.92-1.25,1.21-.52.28-1.11.43-1.76.43s-1.22-.14-1.73-.43ZM67.89,32.03c.27-.15.48-.37.64-.67.16-.3.24-.66.24-1.08,0-.63-.17-1.12-.5-1.46-.33-.34-.74-.51-1.22-.51s-.88.17-1.21.51c-.32.34-.49.83-.49,1.46s.16,1.12.47,1.46c.32.34.71.51,1.19.51.3,0,.59-.07.86-.22Z"/>
      <path class="cls-8" d="M71.72,28.48c.28-.52.67-.92,1.16-1.2.5-.28,1.06-.43,1.7-.43.82,0,1.51.21,2.05.62.54.41.9.99,1.09,1.73h-1.81c-.1-.29-.26-.51-.49-.68-.23-.16-.51-.25-.85-.25-.48,0-.86.17-1.14.52-.28.35-.42.84-.42,1.48s.14,1.12.42,1.47c.28.35.66.52,1.14.52.68,0,1.12-.3,1.33-.91h1.81c-.18.72-.55,1.29-1.09,1.72-.54.42-1.22.64-2.04.64-.64,0-1.21-.14-1.7-.43-.5-.28-.88-.68-1.16-1.2-.28-.52-.42-1.12-.42-1.81s.14-1.29.42-1.81Z"/>
      <path class="cls-8" d="M79.07,25.89c-.2-.19-.29-.42-.29-.7s.1-.51.29-.7c.2-.19.44-.28.74-.28s.54.09.74.28c.2.19.29.42.29.7s-.1.51-.29.7c-.2.19-.44.28-.74.28s-.54-.09-.74-.28ZM80.64,26.96v6.65h-1.68v-6.65h1.68Z"/>
      <path class="cls-8" d="M82.26,28.47c.27-.52.63-.92,1.09-1.2s.97-.42,1.54-.42c.5,0,.93.1,1.3.3s.67.45.89.76v-.95h1.69v6.65h-1.69v-.97c-.22.31-.51.57-.89.77-.38.2-.82.31-1.31.31-.56,0-1.07-.14-1.53-.43s-.82-.69-1.09-1.22c-.27-.52-.4-1.13-.4-1.81s.13-1.27.4-1.79ZM86.85,29.24c-.16-.29-.38-.52-.65-.67-.27-.16-.56-.23-.88-.23s-.6.08-.86.23c-.26.15-.48.37-.64.67-.16.29-.25.64-.25,1.04s.08.75.25,1.05c.16.3.38.53.65.69.27.16.55.24.86.24s.6-.08.88-.23c.27-.16.49-.38.65-.67.16-.29.24-.64.24-1.05s-.08-.76-.24-1.05Z"/>
      <path class="cls-8" d="M92.39,28.34v3.22c0,.22.05.39.16.49.11.1.29.15.55.15h.78v1.42h-1.06c-1.42,0-2.12-.69-2.12-2.06v-3.2h-.79v-1.38h.79v-1.64h1.69v1.64h1.49v1.38h-1.49Z"/>
      <path class="cls-8" d="M95.2,25.89c-.2-.19-.29-.42-.29-.7s.1-.51.29-.7c.2-.19.44-.28.74-.28s.54.09.74.28c.2.19.29.42.29.7s-.1.51-.29.7c-.2.19-.44.28-.74.28s-.54-.09-.74-.28ZM96.77,26.96v6.65h-1.68v-6.65h1.68Z"/>
      <path class="cls-8" d="M99.65,33.29c-.51-.28-.91-.69-1.21-1.21-.29-.52-.44-1.12-.44-1.8s.15-1.28.45-1.8c.3-.52.71-.92,1.23-1.21.52-.28,1.1-.43,1.74-.43s1.22.14,1.74.43c.52.28.93.69,1.23,1.21.3.52.45,1.12.45,1.8s-.15,1.28-.46,1.8c-.31.52-.72.92-1.25,1.21-.52.28-1.11.43-1.76.43s-1.22-.14-1.73-.43ZM102.23,32.03c.27-.15.48-.37.64-.67.16-.3.24-.66.24-1.08,0-.63-.17-1.12-.5-1.46-.33-.34-.74-.51-1.22-.51s-.88.17-1.21.51c-.32.34-.49.83-.49,1.46s.16,1.12.47,1.46c.32.34.71.51,1.19.51.3,0,.59-.07.86-.22Z"/>
      <path class="cls-8" d="M111.68,27.62c.49.5.73,1.2.73,2.09v3.9h-1.68v-3.67c0-.53-.13-.93-.4-1.22s-.62-.43-1.08-.43-.83.14-1.1.43c-.27.28-.4.69-.4,1.22v3.67h-1.68v-6.65h1.68v.83c.22-.29.51-.51.86-.68.35-.16.73-.25,1.15-.25.79,0,1.43.25,1.92.75Z"/>
    </g>
  </g>
  <g id="Layer_2-2" data-name="Layer 2">
    <g id="Butterfly">
      <g id="Back_Wing_Bg" data-name="Back Wing Bg">
        <path class="cls-8" d="M101.01,9.27c-.22-.44-.47-.87-.85-1.23s-.9-.62-1.45-.62c-.29,0-.59.08-.75.28-.2.25-.12.59-.04.88.32,1.18.64,2.35.95,3.53.4,1.48.8,2.95,1.2,4.43.09.33.18.68.38.98s.53.56.92.63c.28.05.62-.03.8-.23s.13-.53.17-.76c.1-.64.14-1.28.14-1.93,0-1.3-.21-2.6-.61-3.87-.22-.71-.51-1.41-.85-2.09Z"/>
        <path class="cls-8" d="M100.97,9.29c-.42-.91-1.21-1.83-2.29-1.79-.54,0-.89.37-.69.91.31.94,1.88,6.44,2.19,7.52.23.81.5,2.03,1.48,1.87.15-.05.23-.05.27-.22.3-2.76.34-5.71-.96-8.29h0ZM101.04,9.26c1.25,2.28,2.06,5,1.68,7.66-.03.3-.03.44-.08.8-.03.37-.46.72-.83.76-1.46.23-1.97-1.36-2.16-2.41-.28-1.12-1.68-6.6-1.89-7.61-.05-.25-.08-.6.14-.84.22-.23.52-.27.79-.27,1.13.04,1.92.98,2.35,1.91h0Z"/>
      </g>
      <path id="Back_Wing_Bg-2" data-name="Back Wing Bg" class="cls-6" d="M100.71,9.34c-.21-.42-.44-.84-.77-1.17s-.79-.56-1.26-.53c-.25.01-.5.11-.63.32-.16.26-.09.59,0,.89.31,1.15.63,2.31.94,3.46.4,1.45.79,2.89,1.19,4.34.09.33.18.66.36.95s.47.53.81.57c.24.03.53-.07.67-.28s.1-.53.12-.77c.06-.64.08-1.29.05-1.93-.05-1.3-.28-2.58-.66-3.82-.22-.69-.49-1.37-.81-2.03Z"/>
      <g id="Antenas">
        <path class="cls-8" d="M106.18,16.03c.04.09.05.19,0,.27s-.17.12-.24.05c-.07-.08-.06-.22-.12-.31-.07-.1-.17-.17-.29-.17-.3,0-.59.36-.78.56-.18.19-.34.39-.52.58-.17.17-.34.34-.58.4.12-.09.24-.19.34-.29.26-.26.46-.58.7-.85.28-.32.78-.75,1.23-.5.11.06.2.16.25.27Z"/>
        <path class="cls-8" d="M104.01,14.38c.18-.04.39,0,.53.12.05.05.1.12.08.19-.02.07-.11.11-.18.1s-.14-.05-.2-.09-.13-.07-.21-.07c-.1,0-.19.09-.24.17-.09.15-.12.33-.14.5-.03.29-.03.59,0,.88.03.28.08.57,0,.85-.01.04-.03.09-.06.12s-.08.05-.12.04c.1-.17.14-.37.13-.57s-.05-.39-.08-.59c-.05-.25-.09-.5-.07-.75.01-.29.09-.65.34-.82.01,0,.02-.02.04-.02"/>
      </g>
      <path id="Body" class="cls-8" d="M102.22,17.47c-1.19-.49-2.43.67-3.39,1.21-1.48.84-3.28,1.16-4.49,2.34,1.13.1,2.21-.4,3.28-.78.88-.31,1.8-.55,2.73-.67.42-.05.85-.08,1.24-.22.44-.16.68-.47.98-.81.24-.28.53-.41.85-.58.11-.05.21-.12.28-.22.04-.07.06-.15.05-.23-.01-.14-.11-.26-.23-.32-.38-.19-.72.12-1.06.24"/>
      <path id="Wing_Bg" data-name="Wing Bg" class="cls-8" d="M100.03,9.51c-.44-.79-1.09-1.69-2.11-1.61-.36.03-.71.21-.9.52-.14.24-.18.52-.2.8s-.05.56-.17.81c-.23.47-.9.35-1.11.79-.11.22-.07.46-.33.57-.3.12-.55.05-.79.3-.21.22-.34.52-.35.82-.03.63.41,1.25.88,1.63-.78,0-1.54.24-2.13.78-.58.52-.94,1.28-.99,2.06-.04.71.16,1.42.5,2.05.29.54.72,1.06,1.31,1.2.53.13,1.09-.07,1.6-.26,2.08-.78,4.15-1.56,6.23-2.33.52-.19.34-.77.34-1.23,0-.58-.04-1.17-.11-1.74-.14-1.15-.42-2.28-.84-3.36-.23-.61-.51-1.21-.83-1.79Z"/>
      <g id="Orange_Parts" data-name="Orange Parts">
        <path class="cls-7" d="M98.9,12.2c-.08-.36.47-.27.66-.21.36.12.64.4.84.72s.31.68.41,1.05c.12.47.22.94.3,1.42.07.44.17.94.12,1.39,0,.05-.02.11-.07.15-.04.03-.1.02-.14,0-.14-.07-.25-.25-.35-.37-.12-.14-.23-.29-.33-.44-.21-.3-.4-.62-.57-.95-.34-.66-.58-1.36-.72-2.09,0-.04-.02-.09-.02-.13"/>
        <path class="cls-7" d="M96.82,12.26c-.17-.12-.33-.24-.44-.41s-.15-.4-.05-.58c.08-.13.22-.21.36-.24s.3,0,.45.02c.57.13,1.09.48,1.41.97.23.36.35,1.05.4,1.55.03.31-.43-.17-.58-.26-.25-.16-.49-.32-.73-.48-.27-.18-.54-.37-.81-.56Z"/>
        <path class="cls-7" d="M98.76,13.8c-.23-.22-.49-.4-.76-.58-.59-.4-1.17-.8-1.77-1.18-.22-.14-.47-.28-.71-.21-.18.05-.32.21-.35.39s.02.37.13.52c.11.15.28.24.44.33,1.03.58,2.05,1.16,3.08,1.74.21.12.48.31.72.34.03-.2-.19-.55-.29-.71-.13-.23-.3-.44-.49-.62Z"/>
        <path class="cls-7" d="M99.81,15.6c-.26-.2-.55-.35-.83-.5-.49-.26-.98-.51-1.46-.77-.73-.38-1.45-.76-2.18-1.14-.04-.02-.09-.05-.14-.05-.12,0-.21.13-.2.25s.08.23.16.32c.39.45.93.73,1.46,1,.77.4,1.54.8,2.32,1.17.28.13.57.26.85.39s.58.28.87.36c0-.17-.25-.42-.35-.55-.15-.18-.31-.34-.5-.48Z"/>
        <path class="cls-7" d="M100.28,17.43c.02-.09-.02-.18-.09-.24s-.16-.09-.24-.12c-.73-.28-1.44-.6-2.13-.96-.21-.11-.44-.23-.68-.2-.21.03-.38.16-.53.3s-.29.3-.48.4c-.13.07-.29.12-.32.26-.02.09.03.18.1.24s.16.09.24.13c.35.13.71.27,1.08.23.2-.02.4-.08.61-.12.31-.05.63-.01.94.02.29.03.59.07.88.1.15.02.58.17.64-.05Z"/>
        <path class="cls-7" d="M96.5,16.04c-.21,0-.42-.09-.61-.18-.32-.15-.64-.29-.96-.44-.12-.06-.24-.11-.35-.19-.13-.1-.24-.25-.22-.41.02-.15.14-.27.29-.31s.3-.01.44.04.26.15.38.23c.37.25.74.49,1.14.7.14.08.44.14.33.33-.09.15-.27.22-.43.23Z"/>
        <path class="cls-7" d="M95.92,16.01c.1.06.18.16.18.28,0,.08-.05.15-.1.21-.14.16-.36.25-.58.24-.18-.01-.34-.1-.51-.15-.46-.15-.96-.1-1.43-.23-.17-.05-.35-.13-.41-.3-.07-.2.07-.42.22-.57.11-.1.23-.2.37-.24.24-.07.49.03.72.13.28.12.56.24.84.37.12.05.25.12.38.16.11.03.23.04.33.1Z"/>
        <path class="cls-7" d="M95.62,17.04c.05.06.1.13.09.2-.01.08-.08.13-.14.18-.41.29-.9.48-1.4.54-.08,0-.16.01-.22-.03-.05-.04-.07-.1-.09-.16-.07-.21-.12-.44-.14-.66,0-.12,0-.25.07-.34.09-.09.23-.1.35-.1.45,0,1.15,0,1.48.36Z"/>
        <path class="cls-7" d="M93.51,16.86c0,.24.03.48.11.7.05.14.11.3.08.44-.04.16-.19.27-.34.35-.1.05-.22.1-.33.07-.15-.05-.21-.22-.25-.37-.09-.31-.17-.63-.18-.96,0-.2.02-.41.14-.58.11-.15.32-.22.51-.18.26.06.27.3.27.52Z"/>
        <path class="cls-7" d="M96.4,17.42c-.12-.02-.23.02-.34.05-.9.28-1.78.65-2.6,1.13-.17.1-.34.22-.4.4-.07.23.1.48.32.56s.47.03.68-.07.38-.27.56-.43c.47-.41.99-.76,1.54-1.05.14-.08.3-.15.42-.27.14-.15,0-.3-.18-.32Z"/>
        <path class="cls-7" d="M98.69,17.7c-.44-.01-.88-.02-1.31.09-.34.09-.66.24-.97.4-.36.18-.71.37-1.06.57-.2.11-.39.22-.56.37s-.3.34-.35.56c1.51-.29,2.99-.73,4.41-1.31.18-.07.36-.15.54-.24.12-.06.44-.2.48-.33.04-.1-.04-.08-.12-.09-.12,0-.24,0-.36,0l-.7-.02Z"/>
        <path class="cls-7" d="M99.64,11.28c.01.1.02.19.03.29,0,.09,0,.19-.06.24-.07.05-.17,0-.24-.06-.13-.11-.23-.27-.28-.44-.02-.07-.02-.14,0-.2.03-.15.18-.21.32-.18.18.04.23.19.24.35Z"/>
        <path class="cls-7" d="M98.99,11.24c.05.1.05.22.05.33,0,.07,0,.15-.06.19-.04.03-.09.02-.13.02-.07,0-.14,0-.21-.03s-.13-.06-.17-.12c-.03-.05-.04-.11-.04-.17,0-.1.02-.2.07-.29.13-.2.38-.15.48.06Z"/>
        <path class="cls-7" d="M98.4,11.03s.09.11.05.17c-.03.04-.09.05-.14.04-.22-.01-.44-.03-.65-.11s-.4-.2-.52-.39c-.06-.1-.09-.22-.08-.33s.1-.22.21-.24c.12-.03.24.04.34.11.15.11.27.24.39.38s.26.24.38.37Z"/>
        <path class="cls-7" d="M98.77,10.77c-.06.08-.18.1-.27.08s-.18-.09-.25-.16c-.19-.17-.37-.37-.5-.59-.08-.12-.14-.25-.17-.39s0-.29.09-.4.26-.16.38-.09c.11.05.16.17.22.28.11.24.22.49.34.73.06.13.27.41.17.55Z"/>
        <path class="cls-7" d="M99.6,10.01c.05.14.09.3.07.45s-.12.3-.26.34c-.13.04-.28,0-.39-.1s-.18-.21-.25-.33c-.3-.52-.54-1.08-.72-1.66-.01-.04-.03-.09-.02-.13.06-.23.66.22.75.29.24.19.44.42.6.68.09.14.16.3.22.46Z"/>
      </g>
    </g>
  </g>
  <g id="Layer_3" data-name="Layer 3">
    <g>
      <circle id="Inner" class="cls-5" cx="19.12" cy="19.12" r="9.75"/>
      <circle id="Second" class="cls-4" cx="19.12" cy="19.12" r="12"/>
      <circle id="Third" class="cls-2" cx="19.12" cy="19.12" r="14.25"/>
      <circle id="Fourth" class="cls-3" cx="19.12" cy="19.12" r="16.5"/>
      <circle id="Outer" class="cls-1" cx="19.12" cy="19.12" r="18.75"/>
      <path class="cls-2" d="M18.27,4.89c.91-.06,2.52.05,3.25.18"/>
      <path class="cls-2" d="M33.36,19.71c-.03.9-.26,2.49-.49,3.19"/>
      <path class="cls-2" d="M5.56,23.5c-.53-1.78-.5-2.18-.64-3.21"/>
    </g>
  </g>
</svg>