<?xml version="1.0" encoding="UTF-8"?>
<svg xmlns="http://www.w3.org/2000/svg" viewBox="0 0 150 150">
  <defs>
    <style>
      .cls-1 {
        fill: #fbb040;
      }

      .cls-1, .cls-2, .cls-3 {
        stroke-width: 0px;
      }

      .cls-4 {
        stroke: #588157;
      }

      .cls-4, .cls-5, .cls-6, .cls-7, .cls-8 {
        fill: none;
        stroke-miterlimit: 10;
        stroke-width: 2.5px;
      }

      .cls-5 {
        stroke: #344e41;
      }

      .cls-2 {
        fill: #f7941d;
      }

      .cls-6 {
        stroke: #dad7cd;
      }

      .cls-7 {
        stroke: #a3b18a;
      }

      .cls-9 {
        fill: #000;
        font-family: Poppins-Regular, Poppins;
        font-size: 10.67px;
      }

      .cls-8 {
        stroke: #3a5a40;
      }

      .cls-3 {
        fill: #231f20;
      }
    </style>
  </defs>
  <g id="Logo">
    <g>
      <circle id="Inner" class="cls-6" cx="75" cy="75" r="32.5"/>
      <circle id="Second" class="cls-7" cx="75" cy="75" r="40"/>
      <circle id="Fourth" class="cls-8" cx="75" cy="75" r="55"/>
      <circle id="Outer" class="cls-5" cx="75" cy="75" r="62.5"/>
      <text class="cls-9" transform="translate(30.89 74.12) rotate(-83.55)"><tspan x="0" y="0">C</tspan></text>
      <text class="cls-9" transform="translate(32.76 62.67) rotate(-70.77)"><tspan x="0" y="0">L</tspan></text>
      <text class="cls-9" transform="translate(35.09 56.56) rotate(-63.5)"><tspan x="0" y="0">I</tspan></text>
      <text class="cls-9" transform="translate(37.67 51.37) rotate(-51.66)"><tspan x="0" y="0">M</tspan></text>
      <text class="cls-9" transform="translate(46.56 41.31) rotate(-35.54)"><tspan x="0" y="0">A</tspan></text>
      <text class="cls-9" transform="translate(55.47 35.53) rotate(-22.52)"><tspan x="0" y="0">T</tspan></text>
      <text class="cls-9" transform="translate(63.67 32.46) rotate(-11.29)"><tspan x="0" y="0">E</tspan></text>
      <text class="cls-9" transform="translate(71.21 31.21) rotate(-3.05)"><tspan x="0" y="0"> </tspan></text>
      <text class="cls-9" transform="translate(85.29 32.14) rotate(18.18)"><tspan x="0" y="0">A</tspan></text>
      <text class="cls-9" transform="translate(95.87 36.13) rotate(33.69)"><tspan x="0" y="0">C</tspan></text>
      <text class="cls-9" transform="translate(105.41 43.2) rotate(47.52)"><tspan x="0" y="0">T</tspan></text>
      <text class="cls-9" transform="translate(110.59 49.25) rotate(55.82)"><tspan x="0" y="0">I</tspan></text>
      <text class="cls-9" transform="translate(113.72 53.88) rotate(66.88)"><tspan x="0" y="0">O</tspan></text>
      <text class="cls-9" transform="translate(118.05 65.66) rotate(82.72)"><tspan x="0" y="0">N</tspan></text>
      <text class="cls-9" transform="translate(118.9 75.82) rotate(92.95)"><tspan x="0" y="0"> </tspan></text>
      <text class="cls-9" transform="translate(116.48 89.79) rotate(114.3)"><tspan x="0" y="0">A</tspan></text>
      <text class="cls-9" transform="translate(111.61 99.42) rotate(127.97)"><tspan x="0" y="0">S</tspan></text>
      <text class="cls-9" transform="translate(105.47 106.74) rotate(140.46)"><tspan x="0" y="0">S</tspan></text>
      <text class="cls-9" transform="translate(97.51 112.91) rotate(154.74)"><tspan x="0" y="0">O</tspan></text>
      <text class="cls-9" transform="translate(85.69 117.76) rotate(171.34)"><tspan x="0" y="0">C</tspan></text>
      <text class="cls-9" transform="translate(74.69 118.9) rotate(-177.92)"><tspan x="0" y="0">I</tspan></text>
      <text class="cls-9" transform="translate(69.47 118.69) rotate(-168.21)"><tspan x="0" y="0">A</tspan></text>
      <text class="cls-9" transform="translate(59.21 116.07) rotate(-155.25)"><tspan x="0" y="0">T</tspan></text>
      <text class="cls-9" transform="translate(52.07 112.47) rotate(-146.81)"><tspan x="0" y="0">I</tspan></text>
      <text class="cls-9" transform="translate(47.46 109.45) rotate(-135.94)"><tspan x="0" y="0">O</tspan></text>
      <text class="cls-9" transform="translate(38.89 100.28) rotate(-120.17)"><tspan x="0" y="0">N</tspan></text>
      <path class="cls-4" d="M72.13,27.56c3.02-.19,8.39.17,10.82.61"/>
      <path class="cls-4" d="M122.46,76.95c-.09,3-.87,8.29-1.64,10.63"/>
      <path class="cls-4" d="M29.78,89.57c-1.77-5.92-1.68-7.26-2.12-10.71"/>
    </g>
  </g>
  <g id="Layer_13" data-name="Layer 13">
    <g id="Butterfly">
      <g id="Back_Wing_Bg" data-name="Back Wing Bg">
        <path class="cls-3" d="M83.3,54.69c-.78-1.54-1.67-3.08-3-4.33s-3.17-2.18-5.1-2.2c-1.02-.01-2.09.27-2.66.98-.7.87-.44,2.07-.15,3.12,1.12,4.15,2.25,8.31,3.37,12.46,1.41,5.21,2.82,10.43,4.23,15.64.32,1.18.65,2.38,1.35,3.45s1.86,1.98,3.24,2.21c.99.16,2.19-.12,2.82-.81s.47-1.86.6-2.69c.34-2.25.5-4.52.49-6.8-.02-4.59-.75-9.19-2.16-13.66-.79-2.51-1.8-4.97-3.01-7.37Z"/>
        <path class="cls-3" d="M83.26,54.71c-1.51-3.25-4.3-6.5-8.15-6.45-2.12,0-3.35,1.29-2.69,3.42.97,3.36,6.37,22.84,7.43,26.65.54,1.76.86,3.63,1.77,5.09,1.07,1.87,4.03,3.11,5.53,1.26,1.83-10.02.73-20.73-3.89-29.97h0ZM83.34,54.66c4.81,9.19,7.07,20.24,4.69,30.49-1.04,1.68-3.52,1.7-5.05.8-1.78-.95-2.74-2.89-3.21-4.74-.06-.31-6.02-22.82-6.34-24.09,0,0-1.37-5.37-1.37-5.37-.64-2.28.69-3.77,3.03-3.71,3.92.06,6.7,3.33,8.24,6.61h0Z"/>
      </g>
      <path id="Back_Wing_Bg-2" data-name="Back Wing Bg" class="cls-2" d="M82.25,54.93c-.73-1.49-1.54-2.96-2.73-4.12s-2.79-1.97-4.45-1.87c-.87.05-1.78.4-2.24,1.14-.57.91-.3,2.09-.02,3.12,1.11,4.07,2.22,8.14,3.34,12.21,1.4,5.11,2.79,10.22,4.19,15.33.32,1.16.64,2.34,1.28,3.35s1.66,1.86,2.85,2c.86.1,1.87-.26,2.38-.99s.34-1.89.41-2.72c.21-2.26.27-4.54.17-6.82-.19-4.57-.98-9.12-2.34-13.49-.77-2.45-1.72-4.85-2.85-7.15Z"/>
      <g id="Antenas">
        <path class="cls-3" d="M101.58,78.56c.13.31.19.68.02.96s-.62.41-.85.17c-.26-.27-.21-.77-.43-1.09-.24-.34-.61-.6-1.03-.6-1.06-.02-2.09,1.26-2.74,1.97-.62.67-1.2,1.38-1.83,2.04-.59.61-1.2,1.19-2.05,1.41.43-.31.84-.66,1.21-1.04.91-.93,1.61-2.04,2.47-3.02,1-1.14,2.75-2.65,4.33-1.77.39.22.72.55.9.96Z"/>
        <path class="cls-3" d="M93.91,72.73c.65-.16,1.36-.02,1.86.44.18.17.34.42.27.66-.07.25-.37.38-.63.35s-.49-.17-.72-.3-.47-.26-.74-.24c-.37.02-.67.3-.86.62-.33.53-.44,1.16-.5,1.78-.11,1.03-.1,2.07,0,3.1.1,1,.3,2.03.02,3-.04.15-.1.3-.21.42s-.28.18-.43.13c.36-.6.48-1.32.46-2.02s-.16-1.39-.29-2.08c-.16-.87-.3-1.76-.26-2.64.04-1.01.31-2.3,1.22-2.89.04-.03.09-.05.13-.08"/>
      </g>
      <path id="Body" class="cls-3" d="M87.59,83.64c-4.2-1.74-8.57,2.35-11.96,4.28-5.21,2.96-11.57,4.09-15.86,8.27,3.99.34,7.81-1.42,11.59-2.76,3.12-1.11,6.34-1.95,9.63-2.35,1.47-.18,2.98-.29,4.39-.79,1.56-.56,2.42-1.65,3.46-2.87.86-1,1.86-1.45,3-2.03.38-.19.75-.43.97-.79.15-.24.22-.52.19-.79-.04-.48-.39-.91-.82-1.13-1.34-.68-2.54.43-3.75.85"/>
      <path id="Wing_Bg" data-name="Wing Bg" class="cls-3" d="M79.85,55.54c-1.54-2.8-3.84-5.96-7.45-5.67-1.26.1-2.52.75-3.17,1.83-.51.84-.63,1.85-.71,2.82s-.16,1.98-.59,2.86c-.81,1.67-3.17,1.24-3.94,2.78-.38.77-.23,1.64-1.17,2.02-1.06.43-1.93.19-2.8,1.07-.75.76-1.2,1.82-1.25,2.89-.1,2.21,1.44,4.41,3.1,5.74-2.77,0-5.44.84-7.51,2.75-2.04,1.85-3.32,4.51-3.49,7.26-.16,2.51.58,5.02,1.77,7.24,1.02,1.9,2.53,3.74,4.63,4.25,1.88.46,3.84-.23,5.65-.91,7.33-2.75,14.67-5.49,22-8.24,1.83-.68,1.21-2.73,1.2-4.36,0-2.06-.13-4.12-.39-6.16-.51-4.06-1.5-8.05-2.95-11.87-.83-2.17-1.8-4.28-2.92-6.32Z"/>
      <g id="Orange_Parts" data-name="Orange Parts">
        <path class="cls-1" d="M75.88,65.02c-.28-1.26,1.65-.97,2.33-.74,1.26.42,2.27,1.4,2.97,2.54s1.09,2.42,1.43,3.7c.44,1.66.79,3.34,1.05,5.03.24,1.55.61,3.32.41,4.89-.02.19-.07.4-.23.51-.15.1-.35.08-.51,0-.49-.25-.88-.9-1.22-1.32-.41-.51-.8-1.03-1.17-1.57-.75-1.07-1.42-2.19-2.01-3.36-1.18-2.32-2.05-4.81-2.55-7.38-.03-.15-.06-.31-.08-.46"/>
        <path class="cls-1" d="M68.53,65.22c-.58-.42-1.18-.86-1.56-1.46s-.53-1.42-.17-2.04c.27-.46.77-.74,1.29-.84s1.06-.03,1.57.08c2.01.46,3.84,1.69,4.96,3.41.82,1.26,1.23,3.72,1.41,5.48.11,1.08-1.51-.59-2.05-.93-.87-.56-1.73-1.13-2.59-1.71-.96-.65-1.91-1.32-2.86-1.99Z"/>
        <path class="cls-1" d="M75.38,70.67c-.81-.78-1.75-1.42-2.67-2.05-2.07-1.41-4.13-2.83-6.24-4.18-.76-.49-1.65-.99-2.52-.75-.63.17-1.11.73-1.25,1.37s.05,1.32.46,1.83c.4.51.99.85,1.56,1.17,3.63,2.04,7.25,4.09,10.88,6.13.73.41,1.68,1.1,2.53,1.18.12-.7-.67-1.93-1.01-2.52-.47-.8-1.05-1.54-1.72-2.19Z"/>
        <path class="cls-1" d="M79.09,77.03c-.91-.69-1.93-1.22-2.94-1.75-1.72-.9-3.44-1.8-5.16-2.7-2.56-1.34-5.13-2.68-7.69-4.02-.15-.08-.31-.16-.48-.17-.43-.02-.75.45-.72.88s.3.8.58,1.12c1.38,1.57,3.29,2.57,5.15,3.54,2.71,1.41,5.42,2.82,8.19,4.12,1,.47,2,.92,3.01,1.36s2.04,1,3.08,1.27c-.03-.6-.87-1.49-1.25-1.95-.52-.63-1.11-1.2-1.76-1.69Z"/>
        <path class="cls-1" d="M80.75,83.49c.08-.31-.08-.64-.32-.85s-.55-.33-.85-.44c-2.57-.98-5.09-2.11-7.53-3.38-.75-.39-1.56-.82-2.41-.71-.73.09-1.35.57-1.88,1.08s-1.03,1.07-1.69,1.41c-.44.23-1.01.43-1.12.92-.07.31.1.64.34.85s.55.33.85.44c1.22.46,2.5.94,3.8.83.72-.06,1.42-.3,2.14-.41,1.1-.17,2.22-.05,3.32.08,1.04.12,2.07.24,3.11.36.52.06,2.04.6,2.24-.17Z"/>
        <path class="cls-1" d="M67.39,78.57c-.76.02-1.47-.3-2.16-.62-1.13-.52-2.27-1.04-3.4-1.56-.42-.2-.85-.39-1.23-.68-.46-.35-.84-.89-.77-1.46.06-.52.51-.95,1.01-1.1s1.06-.05,1.55.15.92.52,1.35.82c1.29.9,2.63,1.73,4.01,2.49.48.27,1.55.49,1.16,1.16-.3.51-.95.79-1.52.8Z"/>
        <path class="cls-1" d="M65.35,78.47c.35.21.63.58.62.98-.01.28-.16.54-.35.76-.5.58-1.28.89-2.04.83-.63-.05-1.2-.34-1.8-.53-1.62-.53-3.4-.35-5.04-.8-.61-.16-1.25-.47-1.46-1.06-.26-.72.24-1.48.78-2.01.37-.37.8-.72,1.3-.86.85-.24,1.73.12,2.54.47.98.43,1.97.86,2.95,1.29.44.19.88.43,1.34.57.39.12.79.14,1.16.36Z"/>
        <path class="cls-1" d="M64.3,82.09c.18.2.35.45.31.71-.04.27-.28.46-.5.62-1.46,1.03-3.18,1.69-4.95,1.92-.27.03-.56.05-.78-.11-.17-.13-.26-.34-.33-.55-.26-.76-.42-1.55-.48-2.35-.03-.42-.03-.88.26-1.19.3-.33.8-.35,1.25-.34,1.6.04,4.05.01,5.23,1.28Z"/>
        <path class="cls-1" d="M56.82,81.49c-.02.84.11,1.69.38,2.48.17.51.4,1.04.28,1.56-.14.57-.66.96-1.18,1.24-.36.19-.77.36-1.15.24-.52-.16-.75-.76-.9-1.29-.31-1.11-.6-2.23-.64-3.38-.03-.71.06-1.46.48-2.04.4-.54,1.15-.79,1.8-.64.92.2.96,1.05.94,1.82Z"/>
        <path class="cls-1" d="M67.04,83.45c-.41-.06-.82.06-1.21.18-3.19.97-6.28,2.3-9.16,3.99-.59.34-1.21.76-1.4,1.41-.23.8.34,1.68,1.12,1.98s1.67.12,2.41-.26,1.35-.96,1.98-1.51c1.66-1.43,3.49-2.68,5.44-3.7.51-.27,1.08-.53,1.47-.96.48-.52-.03-1.04-.63-1.13Z"/>
        <path class="cls-1" d="M75.13,84.43c-1.55-.04-3.12-.07-4.62.3-1.21.3-2.33.86-3.44,1.43-1.26.65-2.52,1.32-3.76,2.01-.69.38-1.38.78-1.97,1.31s-1.07,1.2-1.24,1.98c5.32-1.03,10.55-2.58,15.58-4.61.64-.26,1.28-.53,1.89-.85.42-.22,1.54-.7,1.71-1.17.13-.36-.12-.3-.43-.31-.42-.01-.85-.02-1.27-.03l-2.46-.06Z"/>
        <path class="cls-1" d="M78.48,61.77c.04.34.07.68.11,1.03.03.3.03.68-.22.84-.26.17-.61,0-.85-.2-.47-.4-.83-.95-.97-1.55-.06-.24-.08-.48-.03-.72.12-.52.62-.73,1.11-.63.64.12.8.67.86,1.24Z"/>
        <path class="cls-1" d="M76.17,61.64c.17.36.17.78.18,1.18,0,.24-.01.52-.21.66-.13.09-.3.09-.46.08-.24-.01-.49-.02-.73-.09s-.46-.21-.58-.41c-.11-.18-.14-.4-.14-.61,0-.35.06-.71.26-1.01.47-.71,1.35-.54,1.69.2Z"/>
        <path class="cls-1" d="M74.08,60.89c.15.16.31.4.19.59-.1.15-.31.16-.49.15-.78-.04-1.56-.12-2.3-.38s-1.42-.72-1.82-1.39c-.21-.35-.33-.76-.27-1.16s.36-.77.75-.86c.43-.1.85.14,1.21.4.53.39.95.85,1.37,1.34s.92.86,1.35,1.32Z"/>
        <path class="cls-1" d="M75.41,59.99c-.21.29-.62.37-.96.28s-.63-.31-.9-.55c-.69-.61-1.29-1.31-1.78-2.09-.27-.43-.51-.88-.59-1.38s0-1.04.33-1.42.91-.56,1.36-.33c.38.19.58.61.76.99.4.86.79,1.71,1.19,2.57.21.45.96,1.43.6,1.93Z"/>
        <path class="cls-1" d="M78.35,57.29c.18.5.32,1.04.24,1.57s-.42,1.05-.93,1.21c-.47.15-1-.03-1.38-.34s-.64-.75-.89-1.17c-1.05-1.85-1.91-3.82-2.55-5.85-.05-.15-.09-.3-.05-.45.2-.81,2.32.77,2.66,1.03.84.66,1.56,1.48,2.12,2.39.31.51.57,1.05.77,1.61Z"/>
      </g>
    </g>
  </g>
</svg>